<mxfile host="app.diagrams.net" modified="2024-07-02T06:47:19.451Z" agent="Mozilla/5.0 (Windows NT 10.0; Win64; x64) AppleWebKit/537.36 (KHTML, like Gecko) Chrome/126.0.0.0 Safari/537.36" version="24.6.4" etag="edRZ69jWezCN6j_UCkwO" type="github">
  <diagram name="Page-1" id="6lPGzcJs5GlI4WGnZfGJ">
    <mxGraphModel>
      <root>
        <mxCell id="0" />
        <mxCell id="1" parent="0" />
      </root>
    </mxGraphModel>
  </diagram>
</mxfile>
